<?xml version="1.0" standalone="no"?>
<!DOCTYPE svg PUBLIC "-//W3C//DTD SVG 20010904//EN"
 "http://www.w3.org/TR/2001/REC-SVG-20010904/DTD/svg10.dtd">
<svg version="1.0" xmlns="http://www.w3.org/2000/svg"
 width="64.000000pt" height="64.000000pt" viewBox="0 0 64.000000 64.000000"
 preserveAspectRatio="xMidYMid meet">

<g transform="translate(0.000000,64.000000) scale(0.100000,-0.100000)"
fill="#000000" stroke="none">
<path d="M90 326 c0 -39 2 -44 20 -39 12 3 20 0 20 -6 0 -7 5 -9 10 -6 15 9
12 25 -4 25 -7 0 -19 6 -25 14 -10 12 -8 19 8 35 l21 21 -25 0 c-23 0 -25 -4
-25 -44z"/>
<path d="M187 350 c3 -12 0 -20 -7 -20 -10 0 -10 -3 -1 -14 9 -11 10 -20 1
-35 -10 -19 -8 -21 25 -21 19 0 35 4 35 10 0 5 -6 7 -13 4 -8 -3 -14 2 -14 11
0 10 6 13 19 9 10 -3 18 -1 18 5 0 5 -10 11 -22 13 -17 2 -24 11 -26 31 -2 15
-7 27 -12 27 -4 0 -6 -9 -3 -20z"/>
<path d="M140 340 c0 -5 5 -10 10 -10 6 0 10 5 10 10 0 6 -4 10 -10 10 -5 0
-10 -4 -10 -10z"/>
<path d="M267 333 c-13 -21 -18 -73 -7 -73 11 0 14 7 24 53 6 24 -6 38 -17 20z"/>
<path d="M305 330 c-4 -6 -8 -24 -10 -41 -5 -39 15 -34 28 7 6 16 15 32 21 36
6 5 2 8 -11 8 -12 0 -25 -5 -28 -10z"/>
<path d="M366 331 c-4 -5 -3 -17 0 -28 4 -12 3 -14 -3 -5 -7 9 -13 6 -22 -14
-11 -25 -11 -26 5 -13 13 11 18 11 21 2 8 -23 33 -14 33 11 0 45 -19 71 -34
47z"/>
<path d="M427 333 c-3 -5 -8 -23 -12 -42 -5 -26 -4 -32 6 -29 8 3 16 15 17 29
2 13 8 29 14 34 7 7 9 3 5 -12 -6 -26 10 -31 20 -7 9 23 -38 48 -50 27z"/>
<path d="M496 328 c-15 -49 -16 -68 -1 -68 8 0 15 8 15 18 0 9 3 27 6 40 7 23
-13 33 -20 10z"/>
</g>
</svg>
